# xmcd CD database file
#
# Track frame offsets:
#	182
#	15392
#	27430
#	41350
#	54002
#	64730
#	77077
#	87742
#	98907
#	112432
#	128527
#	140285
#	146217
#	159682
#	171575
#	181765
#	194125
#	209915
#	221242
#	230442
#
# Disc length: 3111 seconds
#
# Revision: 2
# Processed by: cddbd v1.5.1PL0 Copyright (c) Steve Scherf et al.
# Submitted via: CDex 1.51
#
DISCID=300c2514
DTITLE=David Liebman - The Scale Syllabus Vol. 26 [CDTwo)
DYEAR=1982
DGENRE=Jazz
TTITLE0=Bb Blues and Bb Dom. 7th
TTITLE1=Bb7 Sus.4
TTITLE2=8 Bar Each Dom.7th
TTITLE3=Bb- Dorian
TTITLE4=Bb- maj7 Melodic Minor
TTITLE5=Bb Blues over Bb Dorian
TTITLE6=Bb Minor Pentatonic
TTITLE7=Bb Harmonic
TTITLE8=Bb Phrygian
TTITLE9=Bb Major Phrygian
TTITLE10=Bb Diminished
TTITLE11=Bb Diminished Scale
TTITLE12=Bb Pure Minor
TTITLE13=8 Bar Each Dorian
TTITLE14=Bbm7b5 (Half Diminished)
TTITLE15=Bb m7b5 #2 Locrian #2
TTITLE16=B°7 Diminished Scale
TTITLE17=12-Bar Bb Blues
TTITLE18=II/V7/I Progression
TTITLE19=Tuning Notes
EXTD=YEAR: 1982
EXTT0=
EXTT1=
EXTT2=
EXTT3=
EXTT4=
EXTT5=
EXTT6=
EXTT7=
EXTT8=
EXTT9=
EXTT10=
EXTT11=
EXTT12=
EXTT13=
EXTT14=
EXTT15=
EXTT16=
EXTT17=
EXTT18=
EXTT19=
PLAYORDER=
